Results
version=1
nRows=4
nColumns=137
inDegrees=yes
endheader
time	pelvis_rz	pelvis_rx	pelvis_ry	pelvis_tx	pelvis_ty	pelvis_tz	hip_flexion	hip_adduction	hip_rotation	knee_adduction	knee_rotation	knee_flexion	knee_tx	knee_ty	knee_tz	patfem_adduction	patfem_rotation	patfem_flexion	patfem_tx	patfem_ty	patfem_tz	ankle_angle	subtalar_angle	mtp_angle	pelvis_rz_u	pelvis_rx_u	pelvis_ry_u	pelvis_tx_u	pelvis_ty_u	pelvis_tz_u	hip_flexion_u	hip_adduction_u	hip_rotation_u	knee_adduction_u	knee_rotation_u	knee_flexion_u	knee_tx_u	knee_ty_u	knee_tz_u	patfem_adduction_u	patfem_rotation_u	patfem_flexion_u	patfem_tx_u	patfem_ty_u	patfem_tz_u	ankle_angle_u	subtalar_angle_u	mtp_angle_u	addbrev.activation	addbrev.fiber_length	addlong.activation	addlong.fiber_length	addmagProx.activation	addmagProx.fiber_length	addmagMid.activation	addmagMid.fiber_length	addmagDist.activation	addmagDist.fiber_length	addmagIsch.activation	addmagIsch.fiber_length	bflh.activation	bflh.fiber_length	bfsh.activation	bfsh.fiber_length	edl.activation	edl.fiber_length	ehl.activation	ehl.fiber_length	fdl.activation	fdl.fiber_length	fhl.activation	fhl.fiber_length	gaslat.activation	gaslat.fiber_length	gasmed.activation	gasmed.fiber_length	gem.activation	gem.fiber_length	glmax1.activation	glmax1.fiber_length	glmax2.activation	glmax2.fiber_length	glmax3.activation	glmax3.fiber_length	glmed1.activation	glmed1.fiber_length	glmed2.activation	glmed2.fiber_length	glmed3.activation	glmed3.fiber_length	glmin1.activation	glmin1.fiber_length	glmin2.activation	glmin2.fiber_length	glmin3.activation	glmin3.fiber_length	grac.activation	grac.fiber_length	iliacus.activation	iliacus.fiber_length	pect.activation	pect.fiber_length	perbrev.activation	perbrev.fiber_length	perlong.activation	perlong.fiber_length	pertert.activation	pertert.fiber_length	piri.activation	piri.fiber_length	psoas.activation	psoas.fiber_length	quadfem.activation	quadfem.fiber_length	recfem.activation	recfem.fiber_length	sart.activation	sart.fiber_length	semimem.activation	semimem.fiber_length	semiten.activation	semiten.fiber_length	soleus.activation	soleus.fiber_length	tfl.activation	tfl.fiber_length	tibant.activation	tibant.fiber_length	tibpost.activation	tibpost.fiber_length	vasint.activation	vasint.fiber_length	vaslat.activation	vaslat.fiber_length	vasmed.activation	vasmed.fiber_length
      2.30666633	      4.91823582	      2.69218054	    179.94272099	      0.01125212	      0.95636093	     -0.13688505	     -7.29781222	      3.93336526	     -9.81838498	      0.02759675	     -4.88409630	    -22.63994730	      0.00154380	      0.04450408	      0.00000000	     -0.00000000	      0.00005428	     67.31442653	      0.00000000	      0.03999883	      0.00000000	     10.82080991	    -10.41503522	      2.67875723	      0.00000000	      0.00000000	      0.00000000	      0.00000000	      0.00000000	      0.00000000	      0.00000000	      0.00000000	      0.00000000	      0.00000000	      0.00000000	      0.00000000	      0.00000000	      0.00000000	      0.00000000	      0.00000000	      0.00000000	      0.00000000	      0.00000000	      0.00000000	      0.00000000	      0.00000000	      0.00000000	      0.00000000	      0.00000000	      0.00000000	      0.00000000	      0.00000000	      0.00000000	      0.00000000	      0.00000000	      0.00000000	      0.00000000	      0.00000000	      0.00000000	      0.00000000	      0.00000000	      0.00000000	      0.00000000	      0.00000000	      0.00000000	      0.00000000	      0.00000000	      0.00000000	      0.00000000	      0.00000000	      0.00000000	      0.00000000	      0.00000000	      0.00000000	      0.00000000	      0.00000000	      0.00000000	      0.00000000	      0.00000000	      0.00000000	      0.00000000	      0.00000000	      0.00000000	      0.00000000	      0.00000000	      0.00000000	      0.00000000	      0.00000000	      0.00000000	      0.00000000	      0.00000000	      0.00000000	      0.00000000	      0.00000000	      0.00000000	      0.00000000	      0.00000000	      0.00000000	      0.00000000	      0.00000000	      0.00000000	      0.00000000	      0.00000000	      0.00000000	      0.00000000	      0.00000000	      0.00000000	      0.00000000	      0.00000000	      0.00000000	      0.00000000	      0.00000000	      0.00000000	      0.00000000	      0.00000000	      0.00000000	      0.00000000	      0.00000000	      0.00000000	      0.00000000	      0.00000000	      0.00000000	      0.00000000	      0.00000000	      0.00000000	      0.00000000	      0.00000000	      0.00000000	      0.00000000	      0.00000000	      0.00000000	      0.00000000	      0.00000000	      0.00000000	      0.00000000	      0.00000000
      2.31499967	      4.51840195	      2.34352186	    179.94574717	     -0.00049474	      0.95675791	     -0.13584170	     -6.46697377	      3.18104709	     -9.99371500	     -0.02268162	     -4.53755064	    -25.82915842	      0.00121670	      0.04483143	      0.00000000	     -0.00000000	      0.00005428	     64.12521542	      0.00000000	      0.03999883	      0.00000000	      9.06591459	    -10.14082558	      1.48273370	      0.00000000	      0.00000000	      0.00000000	      0.00000000	      0.00000000	      0.00000000	      0.00000000	      0.00000000	      0.00000000	      0.00000000	      0.00000000	      0.00000000	      0.00000000	      0.00000000	      0.00000000	      0.00000000	      0.00000000	      0.00000000	      0.00000000	      0.00000000	      0.00000000	      0.00000000	      0.00000000	      0.00000000	      0.00000000	      0.00000000	      0.00000000	      0.00000000	      0.00000000	      0.00000000	      0.00000000	      0.00000000	      0.00000000	      0.00000000	      0.00000000	      0.00000000	      0.00000000	      0.00000000	      0.00000000	      0.00000000	      0.00000000	      0.00000000	      0.00000000	      0.00000000	      0.00000000	      0.00000000	      0.00000000	      0.00000000	      0.00000000	      0.00000000	      0.00000000	      0.00000000	      0.00000000	      0.00000000	      0.00000000	      0.00000000	      0.00000000	      0.00000000	      0.00000000	      0.00000000	      0.00000000	      0.00000000	      0.00000000	      0.00000000	      0.00000000	      0.00000000	      0.00000000	      0.00000000	      0.00000000	      0.00000000	      0.00000000	      0.00000000	      0.00000000	      0.00000000	      0.00000000	      0.00000000	      0.00000000	      0.00000000	      0.00000000	      0.00000000	      0.00000000	      0.00000000	      0.00000000	      0.00000000	      0.00000000	      0.00000000	      0.00000000	      0.00000000	      0.00000000	      0.00000000	      0.00000000	      0.00000000	      0.00000000	      0.00000000	      0.00000000	      0.00000000	      0.00000000	      0.00000000	      0.00000000	      0.00000000	      0.00000000	      0.00000000	      0.00000000	      0.00000000	      0.00000000	      0.00000000	      0.00000000	      0.00000000	      0.00000000	      0.00000000	      0.00000000	      0.00000000
      2.32333300	      4.08474943	      1.88658032	    179.94818564	     -0.01200318	      0.95744000	     -0.13483819	     -5.55102661	      2.33090422	     -9.99485325	     -0.08498833	     -4.21161763	    -29.10323100	      0.00081717	      0.04518681	      0.00000000	     -0.00000000	      0.00005428	     60.85114283	      0.00000000	      0.03999883	      0.00000000	      6.89864376	    -10.09661131	      0.68788994	      0.00000000	      0.00000000	      0.00000000	      0.00000000	      0.00000000	      0.00000000	      0.00000000	      0.00000000	      0.00000000	      0.00000000	      0.00000000	      0.00000000	      0.00000000	      0.00000000	      0.00000000	      0.00000000	      0.00000000	      0.00000000	      0.00000000	      0.00000000	      0.00000000	      0.00000000	      0.00000000	      0.00000000	      0.00000000	      0.00000000	      0.00000000	      0.00000000	      0.00000000	      0.00000000	      0.00000000	      0.00000000	      0.00000000	      0.00000000	      0.00000000	      0.00000000	      0.00000000	      0.00000000	      0.00000000	      0.00000000	      0.00000000	      0.00000000	      0.00000000	      0.00000000	      0.00000000	      0.00000000	      0.00000000	      0.00000000	      0.00000000	      0.00000000	      0.00000000	      0.00000000	      0.00000000	      0.00000000	      0.00000000	      0.00000000	      0.00000000	      0.00000000	      0.00000000	      0.00000000	      0.00000000	      0.00000000	      0.00000000	      0.00000000	      0.00000000	      0.00000000	      0.00000000	      0.00000000	      0.00000000	      0.00000000	      0.00000000	      0.00000000	      0.00000000	      0.00000000	      0.00000000	      0.00000000	      0.00000000	      0.00000000	      0.00000000	      0.00000000	      0.00000000	      0.00000000	      0.00000000	      0.00000000	      0.00000000	      0.00000000	      0.00000000	      0.00000000	      0.00000000	      0.00000000	      0.00000000	      0.00000000	      0.00000000	      0.00000000	      0.00000000	      0.00000000	      0.00000000	      0.00000000	      0.00000000	      0.00000000	      0.00000000	      0.00000000	      0.00000000	      0.00000000	      0.00000000	      0.00000000	      0.00000000	      0.00000000	      0.00000000	      0.00000000	      0.00000000	      0.00000000
      2.33166633	      3.65738154	      1.42797877	    179.95009275	     -0.02320843	      0.95826088	     -0.13388004	     -4.50011093	      1.53325637	     -9.81753300	     -0.15534481	     -3.94603537	    -32.43004847	      0.00037481	      0.04547496	      0.00000000	     -0.00000000	      0.00005428	     57.52432537	      0.00000000	      0.03999883	      0.00000000	      4.44457063	    -10.25357829	      0.66996078	      0.00000000	      0.00000000	      0.00000000	      0.00000000	      0.00000000	      0.00000000	      0.00000000	      0.00000000	      0.00000000	      0.00000000	      0.00000000	      0.00000000	      0.00000000	      0.00000000	      0.00000000	      0.00000000	      0.00000000	      0.00000000	      0.00000000	      0.00000000	      0.00000000	      0.00000000	      0.00000000	      0.00000000	      0.00000000	      0.00000000	      0.00000000	      0.00000000	      0.00000000	      0.00000000	      0.00000000	      0.00000000	      0.00000000	      0.00000000	      0.00000000	      0.00000000	      0.00000000	      0.00000000	      0.00000000	      0.00000000	      0.00000000	      0.00000000	      0.00000000	      0.00000000	      0.00000000	      0.00000000	      0.00000000	      0.00000000	      0.00000000	      0.00000000	      0.00000000	      0.00000000	      0.00000000	      0.00000000	      0.00000000	      0.00000000	      0.00000000	      0.00000000	      0.00000000	      0.00000000	      0.00000000	      0.00000000	      0.00000000	      0.00000000	      0.00000000	      0.00000000	      0.00000000	      0.00000000	      0.00000000	      0.00000000	      0.00000000	      0.00000000	      0.00000000	      0.00000000	      0.00000000	      0.00000000	      0.00000000	      0.00000000	      0.00000000	      0.00000000	      0.00000000	      0.00000000	      0.00000000	      0.00000000	      0.00000000	      0.00000000	      0.00000000	      0.00000000	      0.00000000	      0.00000000	      0.00000000	      0.00000000	      0.00000000	      0.00000000	      0.00000000	      0.00000000	      0.00000000	      0.00000000	      0.00000000	      0.00000000	      0.00000000	      0.00000000	      0.00000000	      0.00000000	      0.00000000	      0.00000000	      0.00000000	      0.00000000	      0.00000000	      0.00000000	      0.00000000	      0.00000000
